# xmcd
#
# Track frame offsets:
#	150
#	12279
#	26546
#	40742
#	75166
#	90708
#	104435
#	118957
#	141924
#	166300
#	179700
#	190838
#	222319
#	243563
#
# Disc length: 3429
#
# Revision: 3
# Processed by: cddbd v1.5.1PL0 Copyright (c) Steve Scherf et al.
# Submitted via: CDex 1.50beta10
# Normalized: r2:DSETVAR1,TDELIM( - )
#
DISCID=bd0d630e
DTITLE=Various Artist - Really Got The Blues
DYEAR=1900
DGENRE=Blues
TTITLE0=John Lee Hooker - Frisco
TTITLE1=Johnny Winter - Low Down Gall Of Mine
TTITLE2=Eric Clapton - Draggin' My Tail
TTITLE3=B. B. King - Outside Help (short)
TTITLE4=Elmore James - I'll Believe (I'll Dust My Broom)
TTITLE5=Canned Heat - Lousie
TTITLE6=Sonny Terry and Brownie McGhee - Walk On
TTITLE7=John Mayall - Baby What You Want Me To Do
TTITLE8=Jimi Hendrix - Bleeding Hart
TTITLE9=Tony Joe White - You Got Me Running
TTITLE10=Big Joe Williams - Sinking Blues
TTITLE11=the Animals and Sonny Boy Williamson - Nobody But You
TTITLE12=Mike Bloomfield - Cherry Red
TTITLE13=The Yardbirds (with Jeff Beck) - Jeff's Blues
EXTD=
EXTT0=
EXTT1=
EXTT2=
EXTT3=
EXTT4=
EXTT5=
EXTT6=
EXTT7=
EXTT8=
EXTT9=
EXTT10=
EXTT11=
EXTT12=
EXTT13=
PLAYORDER=
